<svg width="21" height="20" viewBox="0 0 21 20" fill="none" xmlns="http://www.w3.org/2000/svg">
<path fill-rule="evenodd" clip-rule="evenodd" d="M20.6903 14.293C18.2203 11.94 17.8487 10.7593 17.8487 7C17.8487 3.13398 14.5587 0 10.5001 0C6.44145 0 3.15147 3.13402 3.15147 7C3.15147 9.02699 3.09479 9.78367 2.80181 10.7127C2.43747 11.87 1.68951 12.978 0.309461 14.293C-0.351669 14.923 0.116647 16 1.05184 16H6.87827L6.8254 16.5C6.8254 18.433 8.47041 20 10.4997 20C12.529 20 14.174 18.433 14.174 16.5L14.1211 16H19.9479C20.8835 16 21.3518 14.923 20.6903 14.293ZM10.5004 19C9.05102 19 7.87576 17.8804 7.87576 16.5L7.92863 16H13.0715L13.1251 16.5C13.1251 17.8804 11.9498 19 10.5004 19ZM1.05217 15C4.20147 12 4.20147 10 4.20147 7C4.20147 3.68668 7.02141 1 10.5001 1C13.9787 1 16.7987 3.68668 16.799 7C16.799 10 16.799 12 19.9483 15H1.05217Z" fill="#646678"/>
</svg>
