<svg width="34" height="35" viewBox="0 0 34 35" fill="none" xmlns="http://www.w3.org/2000/svg">
<path fill-rule="evenodd" clip-rule="evenodd" d="M17.9854 17.0627V0.983965C17.9854 0.437318 17.5474 0 17 0C16.4526 0 16.0146 0.437318 16.0146 0.983965V17.0627C13.7299 17.5219 12 19.5408 12 21.9606C12 24.3805 13.7299 26.3994 16.0146 26.8586V34.016C16.0146 34.5627 16.4526 35 17 35C17.5474 35 17.9854 34.5627 17.9854 34.016V26.8586C20.2701 26.3994 22 24.3805 22 21.9606C22 19.5481 20.2774 17.5219 17.9854 17.0627ZM17 24.9854C15.3285 24.9854 13.9708 23.6297 13.9708 21.9606C13.9708 20.2915 15.3285 18.9359 17 18.9359C18.6715 18.9359 20.0292 20.2915 20.0292 21.9606C20.0292 23.6297 18.6715 24.9854 17 24.9854Z" fill="#3591FB"/>
<path fill-rule="evenodd" clip-rule="evenodd" d="M5.9854 8.81195V0.983965C5.9854 0.437318 5.54745 0 5 0C4.45255 0 4.0146 0.437318 4.0146 0.983965V8.81195C1.72993 9.27114 0 11.2901 0 13.7099C0 16.1297 1.72993 18.1487 4.0146 18.6079V34.016C4.0146 34.5627 4.45255 35 5 35C5.54745 35 5.9854 34.5627 5.9854 34.016V18.6006C8.27007 18.1414 10 16.1224 10 13.7026C10 11.2828 8.27007 9.27114 5.9854 8.81195ZM5 16.7347C3.32847 16.7347 1.9708 15.379 1.9708 13.7099C1.9708 12.0408 3.32847 10.6851 5 10.6851C6.67153 10.6851 8.0292 12.0408 8.0292 13.7099C8.0292 15.379 6.66423 16.7347 5 16.7347Z" fill="#3591FB"/>
<path fill-rule="evenodd" clip-rule="evenodd" d="M29.9854 8.81012V0.98376C29.9854 0.437227 29.5474 0 29 0C28.4526 0 28.0146 0.437227 28.0146 0.98376V8.81012C25.7299 9.26921 24 11.2877 24 13.7071C24 16.1264 25.7299 18.1449 28.0146 18.604V34.0162C28.0146 34.5628 28.4526 35 29 35C29.5474 35 29.9854 34.5628 29.9854 34.0162V18.5967C32.2701 18.1376 34 16.1191 34 13.6998C34 11.2804 32.2774 9.26921 29.9854 8.81012ZM29 16.7312C27.3285 16.7312 25.9708 15.3758 25.9708 13.7071C25.9708 12.0383 27.3285 10.6829 29 10.6829C30.6715 10.6829 32.0292 12.0383 32.0292 13.7071C32.0292 15.3758 30.6715 16.7312 29 16.7312Z" fill="#3591FB"/>
</svg>
